<mxfile host="app.diagrams.net" modified="2021-06-02T06:19:59.164Z" agent="5.0 (Macintosh; Intel Mac OS X 10_15_5) AppleWebKit/537.36 (KHTML, like Gecko) Chrome/90.0.4430.212 Safari/537.36" etag="foA3aba9L-2U7rUCz8Z8" version="14.7.3" type="github">
  <diagram id="kn_y-U4Ey8iHkFhdDYrM" name="Page-1">
    <mxGraphModel dx="1186" dy="719" grid="1" gridSize="10" guides="1" tooltips="1" connect="1" arrows="1" fold="1" page="1" pageScale="1" pageWidth="827" pageHeight="1169" math="0" shadow="0">
      <root>
        <mxCell id="0" />
        <mxCell id="1" parent="0" />
        <mxCell id="81WX4qefEjgCjpp0hGWa-1" value="" style="rounded=1;whiteSpace=wrap;html=1;" vertex="1" parent="1">
          <mxGeometry x="80" y="80" width="200" height="40" as="geometry" />
        </mxCell>
        <mxCell id="81WX4qefEjgCjpp0hGWa-2" value="REQUEST(HTML/JSON)" style="text;html=1;resizable=0;autosize=1;align=center;verticalAlign=middle;points=[];fillColor=none;strokeColor=none;rounded=0;fontSize=14;fontStyle=1" vertex="1" parent="1">
          <mxGeometry x="95" y="90" width="170" height="20" as="geometry" />
        </mxCell>
        <mxCell id="81WX4qefEjgCjpp0hGWa-8" value="" style="rounded=1;whiteSpace=wrap;html=1;" vertex="1" parent="1">
          <mxGeometry x="80" y="200" width="200" height="40" as="geometry" />
        </mxCell>
        <mxCell id="81WX4qefEjgCjpp0hGWa-9" value="ROUTER" style="text;html=1;resizable=0;autosize=1;align=center;verticalAlign=middle;points=[];fillColor=none;strokeColor=none;rounded=0;fontSize=14;fontStyle=1" vertex="1" parent="1">
          <mxGeometry x="145" y="210" width="70" height="20" as="geometry" />
        </mxCell>
        <mxCell id="81WX4qefEjgCjpp0hGWa-10" value="" style="rounded=1;whiteSpace=wrap;html=1;" vertex="1" parent="1">
          <mxGeometry x="80" y="320" width="200" height="40" as="geometry" />
        </mxCell>
        <mxCell id="81WX4qefEjgCjpp0hGWa-11" value="CONTROLLER" style="text;html=1;resizable=0;autosize=1;align=center;verticalAlign=middle;points=[];fillColor=none;strokeColor=none;rounded=0;fontSize=14;fontStyle=1" vertex="1" parent="1">
          <mxGeometry x="125" y="330" width="110" height="20" as="geometry" />
        </mxCell>
        <mxCell id="81WX4qefEjgCjpp0hGWa-13" value="" style="rounded=1;whiteSpace=wrap;html=1;" vertex="1" parent="1">
          <mxGeometry x="80" y="440" width="200" height="40" as="geometry" />
        </mxCell>
        <mxCell id="81WX4qefEjgCjpp0hGWa-14" value="VIEW" style="text;html=1;resizable=0;autosize=1;align=center;verticalAlign=middle;points=[];fillColor=none;strokeColor=none;rounded=0;fontSize=14;fontStyle=1" vertex="1" parent="1">
          <mxGeometry x="155" y="450" width="50" height="20" as="geometry" />
        </mxCell>
        <mxCell id="81WX4qefEjgCjpp0hGWa-15" value="" style="rounded=1;whiteSpace=wrap;html=1;" vertex="1" parent="1">
          <mxGeometry x="80" y="560" width="200" height="40" as="geometry" />
        </mxCell>
        <mxCell id="81WX4qefEjgCjpp0hGWa-16" value="RESPONSE" style="text;html=1;resizable=0;autosize=1;align=center;verticalAlign=middle;points=[];fillColor=none;strokeColor=none;rounded=0;fontSize=14;fontStyle=1" vertex="1" parent="1">
          <mxGeometry x="135" y="570" width="90" height="20" as="geometry" />
        </mxCell>
        <mxCell id="81WX4qefEjgCjpp0hGWa-17" value="" style="rounded=1;whiteSpace=wrap;html=1;" vertex="1" parent="1">
          <mxGeometry x="350" y="320" width="200" height="40" as="geometry" />
        </mxCell>
        <mxCell id="81WX4qefEjgCjpp0hGWa-18" value="MODEL" style="text;html=1;resizable=0;autosize=1;align=center;verticalAlign=middle;points=[];fillColor=none;strokeColor=none;rounded=0;fontSize=14;fontStyle=1" vertex="1" parent="1">
          <mxGeometry x="415" y="330" width="70" height="20" as="geometry" />
        </mxCell>
        <mxCell id="81WX4qefEjgCjpp0hGWa-19" value="" style="rounded=1;whiteSpace=wrap;html=1;" vertex="1" parent="1">
          <mxGeometry x="620" y="320" width="200" height="40" as="geometry" />
        </mxCell>
        <mxCell id="81WX4qefEjgCjpp0hGWa-20" value="DATABASE" style="text;html=1;resizable=0;autosize=1;align=center;verticalAlign=middle;points=[];fillColor=none;strokeColor=none;rounded=0;fontSize=14;fontStyle=1" vertex="1" parent="1">
          <mxGeometry x="675" y="330" width="90" height="20" as="geometry" />
        </mxCell>
        <mxCell id="81WX4qefEjgCjpp0hGWa-23" value="" style="rounded=1;whiteSpace=wrap;html=1;" vertex="1" parent="1">
          <mxGeometry x="350" y="440" width="200" height="40" as="geometry" />
        </mxCell>
        <mxCell id="81WX4qefEjgCjpp0hGWa-24" value="CONTROLLER" style="text;html=1;resizable=0;autosize=1;align=center;verticalAlign=middle;points=[];fillColor=none;strokeColor=none;rounded=0;fontSize=14;fontStyle=1" vertex="1" parent="1">
          <mxGeometry x="395" y="450" width="110" height="20" as="geometry" />
        </mxCell>
        <mxCell id="81WX4qefEjgCjpp0hGWa-27" value="" style="shape=flexArrow;endArrow=classic;html=1;fontSize=14;" edge="1" parent="1">
          <mxGeometry width="50" height="50" relative="1" as="geometry">
            <mxPoint x="170" y="122" as="sourcePoint" />
            <mxPoint x="170" y="200" as="targetPoint" />
          </mxGeometry>
        </mxCell>
        <mxCell id="81WX4qefEjgCjpp0hGWa-29" value="" style="shape=flexArrow;endArrow=classic;html=1;fontSize=14;" edge="1" parent="1">
          <mxGeometry width="50" height="50" relative="1" as="geometry">
            <mxPoint x="170" y="240" as="sourcePoint" />
            <mxPoint x="170" y="318" as="targetPoint" />
          </mxGeometry>
        </mxCell>
        <mxCell id="81WX4qefEjgCjpp0hGWa-30" value="" style="shape=flexArrow;endArrow=classic;html=1;fontSize=14;" edge="1" parent="1">
          <mxGeometry width="50" height="50" relative="1" as="geometry">
            <mxPoint x="170" y="360" as="sourcePoint" />
            <mxPoint x="170" y="438" as="targetPoint" />
          </mxGeometry>
        </mxCell>
        <mxCell id="81WX4qefEjgCjpp0hGWa-31" value="" style="shape=flexArrow;endArrow=classic;html=1;fontSize=14;" edge="1" parent="1">
          <mxGeometry width="50" height="50" relative="1" as="geometry">
            <mxPoint x="170" y="480" as="sourcePoint" />
            <mxPoint x="170" y="558" as="targetPoint" />
          </mxGeometry>
        </mxCell>
        <mxCell id="81WX4qefEjgCjpp0hGWa-32" value="" style="shape=flexArrow;endArrow=classic;html=1;fontSize=14;exitX=0;exitY=0.5;exitDx=0;exitDy=0;entryX=1;entryY=0.5;entryDx=0;entryDy=0;" edge="1" parent="1" source="81WX4qefEjgCjpp0hGWa-17" target="81WX4qefEjgCjpp0hGWa-10">
          <mxGeometry width="50" height="50" relative="1" as="geometry">
            <mxPoint x="180" y="370" as="sourcePoint" />
            <mxPoint x="180" y="448" as="targetPoint" />
          </mxGeometry>
        </mxCell>
        <mxCell id="81WX4qefEjgCjpp0hGWa-33" value="" style="shape=flexArrow;endArrow=classic;html=1;fontSize=14;exitX=0;exitY=0.5;exitDx=0;exitDy=0;entryX=1;entryY=0.5;entryDx=0;entryDy=0;" edge="1" parent="1">
          <mxGeometry width="50" height="50" relative="1" as="geometry">
            <mxPoint x="350" y="459.5" as="sourcePoint" />
            <mxPoint x="280" y="459.5" as="targetPoint" />
          </mxGeometry>
        </mxCell>
        <mxCell id="81WX4qefEjgCjpp0hGWa-34" value="" style="shape=flexArrow;endArrow=classic;html=1;fontSize=14;exitX=0;exitY=0.5;exitDx=0;exitDy=0;entryX=1;entryY=0.5;entryDx=0;entryDy=0;" edge="1" parent="1">
          <mxGeometry width="50" height="50" relative="1" as="geometry">
            <mxPoint x="620" y="339.5" as="sourcePoint" />
            <mxPoint x="550" y="339.5" as="targetPoint" />
          </mxGeometry>
        </mxCell>
      </root>
    </mxGraphModel>
  </diagram>
</mxfile>
